<svg xmlns="http://www.w3.org/2000/svg" width="256" height="256" viewBox="0 0 256 256" version="1.1">
	<path d="M -0 128.004 L -0 256.008 128.250 255.754 L 256.500 255.500 256.754 127.750 L 257.008 0 128.504 0 L 0 0 -0 128.004 M 0.485 128.500 C 0.485 198.900, 0.604 227.553, 0.750 192.172 C 0.896 156.792, 0.896 99.192, 0.750 64.172 C 0.604 29.153, 0.485 58.100, 0.485 128.500 M 119.324 45.379 C 109.745 48.513, 103.309 54.844, 99.931 64.456 C 97.434 71.561, 97.492 76.566, 100.154 83.681 C 102.968 91.204, 110.600 98.994, 117.437 101.324 C 123.717 103.463, 132.283 103.463, 138.563 101.324 C 148.625 97.895, 158 84.686, 158 73.938 C 158 68.222, 154.656 59.506, 150.531 54.472 C 143.716 46.156, 129.559 42.031, 119.324 45.379 M 117.027 133.737 C 106.307 137.520, 97.286 151.610, 98.285 163.014 C 99.202 173.491, 107.124 185.107, 115.390 188.096 C 119.663 189.642, 119.661 189.711, 114.954 203.636 L 112.127 212 127.313 211.998 L 142.500 211.996 150.250 188.214 C 154.512 175.133, 158 162.776, 158 160.753 C 158 150.307, 148.490 137.059, 138.563 133.676 C 132.499 131.610, 122.977 131.636, 117.027 133.737" stroke="none" fill="black" fill-rule="evenodd"/>
</svg>